<svg width="33" height="32" viewBox="0 0 33 32" fill="none" xmlns="http://www.w3.org/2000/svg">
<path fill-rule="evenodd" clip-rule="evenodd" d="M17.3674 5.26875C17.6675 4.9688 18.0744 4.80029 18.4986 4.80029C18.9229 4.80029 19.3298 4.9688 19.6298 5.26875L29.2298 14.8688C29.5298 15.1688 29.6983 15.5757 29.6983 16C29.6983 16.4242 29.5298 16.8311 29.2298 17.1312L19.6298 26.7312C19.3281 27.0226 18.9239 27.1839 18.5044 27.1802C18.0849 27.1766 17.6836 27.0083 17.3869 26.7117C17.0903 26.415 16.922 26.0137 16.9184 25.5942C16.9147 25.1747 17.076 24.7705 17.3674 24.4688L24.2362 17.6H5.69863C5.27429 17.6 4.86732 17.4314 4.56726 17.1313C4.2672 16.8313 4.09863 16.4243 4.09863 16C4.09863 15.5756 4.2672 15.1686 4.56726 14.8686C4.86732 14.5685 5.27429 14.4 5.69863 14.4H24.2362L17.3674 7.53115C17.0675 7.23111 16.899 6.82421 16.899 6.39995C16.899 5.97569 17.0675 5.5688 17.3674 5.26875Z" fill="#FFEBC1"/>
</svg>
