<svg width="32" height="33" viewBox="0 0 32 33" fill="none" xmlns="http://www.w3.org/2000/svg">
<path fill-rule="evenodd" clip-rule="evenodd" d="M16.4688 5.70949C16.7688 5.40953 17.1757 5.24103 17.6 5.24103C18.0242 5.24103 18.4311 5.40953 18.7311 5.70949L28.3312 15.3095C28.6311 15.6095 28.7996 16.0164 28.7996 16.4407C28.7996 16.8649 28.6311 17.2718 28.3312 17.5719L18.7311 27.1719C18.4294 27.4633 18.0252 27.6246 17.6057 27.621C17.1862 27.6173 16.7849 27.449 16.4882 27.1524C16.1916 26.8557 16.0233 26.4544 16.0197 26.0349C16.016 25.6154 16.1773 25.2113 16.4688 24.9095L23.3376 18.0407H4.79995C4.3756 18.0407 3.96864 17.8721 3.66858 17.5721C3.36852 17.272 3.19995 16.865 3.19995 16.4407C3.19995 16.0163 3.36852 15.6094 3.66858 15.3093C3.96864 15.0093 4.3756 14.8407 4.79995 14.8407H23.3376L16.4688 7.97189C16.1688 7.67184 16.0003 7.26495 16.0003 6.84069C16.0003 6.41642 16.1688 6.00953 16.4688 5.70949Z" fill="#FFEBC1"/>
</svg>
