<svg width="7" height="6" viewBox="0 0 7 6" fill="none" xmlns="http://www.w3.org/2000/svg">
<path fill-rule="evenodd" clip-rule="evenodd" d="M3.25639 0.987983C3.31266 0.931742 3.38895 0.900146 3.46849 0.900146C3.54804 0.900146 3.62434 0.931742 3.68059 0.987983L5.48059 2.78799C5.53684 2.84424 5.56843 2.92054 5.56843 3.00009C5.56843 3.07963 5.53684 3.15592 5.48059 3.21219L3.68059 5.01219C3.62402 5.06683 3.54823 5.09707 3.46958 5.09638C3.39092 5.0957 3.31568 5.06415 3.26004 5.00854C3.20443 4.9529 3.17288 4.87766 3.1722 4.799C3.17151 4.72035 3.20175 4.64456 3.25639 4.58799L4.54429 3.30009H1.06849C0.98893 3.30009 0.912623 3.26848 0.856362 3.21221C0.8001 3.15596 0.768494 3.07965 0.768494 3.00009C0.768494 2.92052 0.8001 2.8442 0.856362 2.78795C0.912623 2.73169 0.98893 2.70009 1.06849 2.70009H4.54429L3.25639 1.41218C3.20016 1.35593 3.16856 1.27963 3.16856 1.20008C3.16856 1.12053 3.20016 1.04424 3.25639 0.987983Z" fill="#FFEBC1"/>
</svg>
