<svg width="52" height="52" viewBox="0 0 52 52" fill="none" xmlns="http://www.w3.org/2000/svg">
<path fill-rule="evenodd" clip-rule="evenodd" d="M20.683 43.875C20.683 44.306 20.8542 44.7193 21.159 45.024C21.4637 45.3288 21.877 45.5 22.308 45.5H43.875C45.1679 45.5 46.4079 44.9864 47.3221 44.0721C48.2364 43.1579 48.75 41.9179 48.75 40.625V8.125C48.75 6.83207 48.2364 5.59209 47.3221 4.67785C46.4079 3.76361 45.1679 3.25 43.875 3.25H11.375C10.0821 3.25 8.84209 3.76361 7.92785 4.67785C7.01361 5.59209 6.5 6.83207 6.5 8.125V29.692C6.5 30.123 6.67121 30.5363 6.97595 30.841C7.2807 31.1458 7.69402 31.317 8.125 31.317C8.55598 31.317 8.9693 31.1458 9.27405 30.841C9.57879 30.5363 9.75 30.123 9.75 29.692V8.125C9.75 7.69402 9.92121 7.2807 10.226 6.97595C10.5307 6.67121 10.944 6.5 11.375 6.5H43.875C44.306 6.5 44.7193 6.67121 45.024 6.97595C45.3288 7.2807 45.5 7.69402 45.5 8.125V40.625C45.5 41.056 45.3288 41.4693 45.024 41.774C44.7193 42.0788 44.306 42.25 43.875 42.25H22.308C21.877 42.25 21.4637 42.4212 21.159 42.726C20.8542 43.0307 20.683 43.444 20.683 43.875Z" fill="#ED3D33"/>
<path fill-rule="evenodd" clip-rule="evenodd" d="M35.7501 17.875C35.7501 17.444 35.5789 17.0307 35.2741 16.726C34.9694 16.4212 34.5561 16.25 34.1251 16.25H17.8751C17.4441 16.25 17.0308 16.4212 16.7261 16.726C16.4213 17.0307 16.2501 17.444 16.2501 17.875C16.2501 18.306 16.4213 18.7193 16.7261 19.024C17.0308 19.3288 17.4441 19.5 17.8751 19.5H30.2023L3.7246 45.9745C3.41947 46.2796 3.24805 46.6935 3.24805 47.125C3.24805 47.5565 3.41947 47.9704 3.7246 48.2755C4.02973 48.5806 4.44358 48.7521 4.8751 48.7521C5.30662 48.7521 5.72047 48.5806 6.0256 48.2755L32.5001 21.7977V34.125C32.5001 34.556 32.6713 34.9693 32.976 35.274C33.2808 35.5788 33.6941 35.75 34.1251 35.75C34.5561 35.75 34.9694 35.5788 35.2741 35.274C35.5789 34.9693 35.7501 34.556 35.7501 34.125V17.875Z" fill="#ED3D33"/>
</svg>
