<svg width="298" height="262" viewBox="0 0 298 262" fill="none" xmlns="http://www.w3.org/2000/svg">
<path fill-rule="evenodd" clip-rule="evenodd" d="M254.6 91.1557V210.444L265.16 207.639C265.49 207.421 265.767 207.421 265.985 207.639L295.355 211.602C296.784 211.82 297.5 212.536 297.5 213.741C297.718 215.061 297.17 215.886 295.85 216.216L149.825 261.762H148.34L2.14988 216.219C0.829882 215.889 0.278782 215.064 0.499882 213.744C0.499882 212.54 1.21598 211.823 2.64488 211.606L31.8499 207.642C32.0677 207.425 32.3449 207.425 32.6749 207.642L40.7599 209.622V68.3824C40.7599 66.9502 41.4199 66.1252 42.7399 65.9074L57.5899 62.9374V56.3374C57.5899 55.2352 58.1971 54.4696 59.4049 54.0307L85.9699 44.9557H87.1249L115.01 49.2424C116.442 49.4602 117.155 50.2357 117.155 51.5557V55.5124L118.805 55.6807V16.4107C118.805 15.0907 119.409 14.2657 120.62 13.9357L127.385 12.2857V7.99236C127.385 6.67236 127.936 5.84736 129.035 5.51736L147.35 0.40566C147.901 0.18786 148.34 0.18786 148.67 0.40566L168.8 5.51736C170.12 5.84736 170.78 6.67236 170.78 7.99236V12.4474L177.38 13.9357C178.7 14.2657 179.36 15.0907 179.36 16.4107V72.5107C179.69 72.1807 180.076 72.0157 180.515 72.0157L208.4 67.8907H209.555L236.12 76.7974C237.219 77.134 237.77 77.8996 237.77 79.1107V85.7107L252.785 88.8424C253.993 89.0602 254.6 89.8324 254.6 91.1557ZM234.8 90.1624C233.701 89.9446 233.094 89.2285 232.985 88.0174L208.73 82.9057H208.565L194.21 80.0941V226.944L249.815 213.414V93.2941L234.8 90.1624ZM232.985 80.9191L209.72 73.3324V81.4141L232.985 86.5324V80.9191ZM165.83 9.80736L148.835 5.35236V8.65236L165.83 12.9391V9.80736ZM132.17 12.6124L147.185 8.31906V5.51406L132.17 9.80736V12.6124ZM132.17 14.0941C132.061 15.3052 131.454 16.0807 130.355 16.4074L123.59 18.2191V57.9874L136.955 59.4691C137.506 59.4691 137.78 59.7463 137.78 60.2941V117.882H146.855V10.1374L132.17 14.0941ZM102.14 55.5124L112.205 56.8324V53.6941L87.6199 50.0641V58.3141L101.81 55.5091L101.975 55.3408H102.14V55.5124ZM102.965 57.1624V226.617L110.885 228.597V125.967C110.885 125.42 111.159 125.142 111.71 125.142H117.485V118.711C117.485 118.163 117.759 117.886 118.31 117.886H136.13V60.9607L123.425 59.4724C123.316 59.6968 123.095 59.9674 122.765 60.2974C121.884 60.7429 121.227 60.9046 120.785 60.7924L114.35 60.1357C113.03 60.1357 112.314 59.5285 112.205 58.3174L102.965 57.1624ZM85.9699 50.2324L62.3749 58.1524V63.7591L85.9699 58.6408V50.2324ZM167.645 16.5691C166.546 16.2391 165.939 15.5263 165.83 14.4307L148.505 10.1374V117.882H157.745V83.0674C157.745 82.6285 158.019 82.4107 158.57 82.4107L174.41 80.5924V18.2224L167.645 16.5691ZM174.575 82.0807L159.395 83.8924V117.886H180.02C180.571 117.886 180.845 118.163 180.845 118.711V125.142H186.125C186.676 125.142 186.95 125.42 186.95 125.967V228.597L192.56 227.442V79.9324L183.32 81.0874C183.211 82.0807 182.495 82.6846 181.175 82.9057L177.05 83.3941C176.39 83.6185 175.786 83.4535 175.235 82.9057C174.905 82.6846 174.684 82.4074 174.575 82.0807ZM183.32 79.4374L193.22 78.2824C193.22 78.0646 193.329 78.0646 193.55 78.2824L208.07 81.0874V73.0057L183.32 76.3057V79.4374ZM179.195 119.532H119.135V125.139H179.195V119.532ZM112.535 126.792V229.092L148.34 237.837V126.792H112.535ZM148.835 239.656L45.2149 214.242C45.106 214.351 44.941 214.46 44.7199 214.572C44.0599 215.127 43.3438 215.288 42.5749 215.067L32.0149 212.592L14.1949 214.737L149.165 256.812L283.97 214.737L265.82 212.592L252.785 215.892C252.016 216.11 251.3 215.952 250.64 215.397C250.422 215.288 250.254 215.127 250.145 214.909L149.33 239.659L148.835 239.656ZM149.99 237.837L185.3 229.092V126.792H149.99V237.837ZM101.315 57.3307L62.3749 65.2441C62.266 66.3463 61.606 67.0096 60.3949 67.2307L45.7099 70.3624V212.757L101.315 226.119V57.3307Z" fill="black"/>
</svg>
