<svg width="49" height="49" viewBox="0 0 49 49" fill="none" xmlns="http://www.w3.org/2000/svg">
<g clip-path="url(#clip0_631_5525)">
<path d="M0.5 6.5C0.5 4.9087 1.13214 3.38258 2.25736 2.25736C3.38258 1.13214 4.9087 0.5 6.5 0.5L42.5 0.5C44.0913 0.5 45.6174 1.13214 46.7426 2.25736C47.8679 3.38258 48.5 4.9087 48.5 6.5V30.5C48.5 32.0913 47.8679 33.6174 46.7426 34.7426C45.6174 35.8679 44.0913 36.5 42.5 36.5H13.742C12.9464 36.5002 12.1835 36.8164 11.621 37.379L3.062 45.938C2.85239 46.1481 2.58515 46.2914 2.29411 46.3496C2.00306 46.4078 1.7013 46.3783 1.427 46.2649C1.1527 46.1515 0.918206 45.9593 0.753192 45.7126C0.588178 45.4659 0.500063 45.1758 0.5 44.879L0.5 6.5ZM22.082 14.798C21.884 14.503 21.6558 14.2295 21.401 13.982C20.9984 13.571 20.5208 13.2411 19.994 13.01L19.97 12.998C19.2591 12.6695 18.4852 12.4996 17.702 12.5C14.828 12.5 12.5 14.738 12.5 17.501C12.5 20.261 14.828 22.499 17.702 22.499C18.731 22.499 19.688 22.214 20.495 21.719C20.084 22.886 19.325 24.131 18.065 25.379C17.9463 25.4948 17.8526 25.6338 17.7896 25.7872C17.7267 25.9406 17.6958 26.1053 17.6989 26.2711C17.702 26.437 17.739 26.6004 17.8076 26.7514C17.8763 26.9023 17.9751 27.0377 18.098 27.149C18.617 27.629 19.439 27.614 19.94 27.119C23.942 23.132 24.05 18.845 22.763 16.001C22.5734 15.5809 22.3454 15.1792 22.082 14.801V14.798ZM33.5 21.719C33.092 22.886 32.33 24.131 31.07 25.379C30.9515 25.495 30.858 25.6341 30.7953 25.7877C30.7326 25.9412 30.702 26.106 30.7053 26.2718C30.7087 26.4376 30.746 26.601 30.8149 26.7518C30.8838 26.9027 30.9829 27.0379 31.106 27.149C31.622 27.629 32.444 27.614 32.945 27.119C36.947 23.132 37.055 18.845 35.771 16.001C35.5804 15.5808 35.3514 15.1791 35.087 14.801C34.8892 14.505 34.661 14.2305 34.406 13.982C34.0034 13.571 33.5258 13.2411 32.999 13.01L32.975 12.998C32.265 12.6699 31.4922 12.5 30.71 12.5C27.839 12.5 25.508 14.738 25.508 17.501C25.508 20.261 27.839 22.499 30.71 22.499C31.739 22.499 32.696 22.214 33.503 21.719H33.5Z" fill="#ED3D33"/>
</g>
<defs>
<clipPath id="clip0_631_5525">
<rect width="48" height="48" fill="white" transform="translate(0.5 0.5)"/>
</clipPath>
</defs>
</svg>
