<svg width="100" height="101" viewBox="0 0 100 101" fill="none" xmlns="http://www.w3.org/2000/svg">
<g clip-path="url(#clip0_805_4355)">
<path d="M0 12.6697C0 9.35447 1.31696 6.17505 3.66117 3.83084C6.00537 1.48664 9.18479 0.169678 12.5 0.169678L87.5 0.169678C90.8152 0.169678 93.9946 1.48664 96.3388 3.83084C98.683 6.17505 100 9.35447 100 12.6697V62.6697C100 65.9849 98.683 69.1643 96.3388 71.5085C93.9946 73.8527 90.8152 75.1697 87.5 75.1697H27.5875C25.93 75.17 24.3406 75.8287 23.1688 77.0009L5.3375 94.8322C4.90082 95.27 4.34407 95.5684 3.73773 95.6896C3.13138 95.8109 2.5027 95.7495 1.93125 95.5133C1.35979 95.2771 0.871262 94.8766 0.527483 94.3627C0.183704 93.8487 0.000131343 93.2443 0 92.6259L0 12.6697ZM44.9625 29.9572C44.5501 29.3426 44.0746 28.7729 43.5437 28.2572C42.7051 27.401 41.71 26.7136 40.6125 26.2322L40.5625 26.2072C39.0814 25.5228 37.4691 25.1688 35.8375 25.1697C29.85 25.1697 25 29.8322 25 35.5884C25 41.3384 29.85 46.0009 35.8375 46.0009C37.9812 46.0009 39.975 45.4072 41.6562 44.3759C40.8 46.8072 39.2187 49.4009 36.5937 52.0009C36.3465 52.2423 36.1513 52.5317 36.0201 52.8513C35.8889 53.171 35.8245 53.5141 35.831 53.8595C35.8374 54.205 35.9145 54.5455 36.0575 54.86C36.2005 55.1746 36.4064 55.4565 36.6625 55.6884C37.7438 56.6884 39.4562 56.6572 40.5 55.6259C48.8375 47.3197 49.0625 38.3884 46.3812 32.4634C45.9862 31.5883 45.5112 30.7514 44.9625 29.9634V29.9572ZM68.75 44.3759C67.9 46.8072 66.3125 49.4009 63.6875 52.0009C63.4406 52.2427 63.2459 52.5324 63.1152 52.8523C62.9846 53.1722 62.9208 53.5154 62.9278 53.8609C62.9348 54.2064 63.0125 54.5467 63.1561 54.861C63.2996 55.1753 63.506 55.4569 63.7625 55.6884C64.8375 56.6884 66.55 56.6572 67.5937 55.6259C75.9312 47.3197 76.1562 38.3884 73.4812 32.4634C73.0842 31.588 72.6071 30.7512 72.0562 29.9634C71.6442 29.3467 71.1687 28.7749 70.6375 28.2572C69.7988 27.401 68.8038 26.7136 67.7063 26.2322L67.6562 26.2072C66.177 25.5237 64.567 25.1697 62.9375 25.1697C56.9563 25.1697 52.1 29.8322 52.1 35.5884C52.1 41.3384 56.9563 46.0009 62.9375 46.0009C65.0812 46.0009 67.075 45.4072 68.7562 44.3759H68.75Z" fill="black"/>
</g>
<defs>
<clipPath id="clip0_805_4355">
<rect width="100" height="100" fill="white" transform="translate(0 0.169678)"/>
</clipPath>
</defs>
</svg>
