<svg width="42" height="42" viewBox="0 0 42 42" fill="none" xmlns="http://www.w3.org/2000/svg">
<g clip-path="url(#clip0_631_5617)">
<path d="M41.4493 20.8133C41.4493 9.36735 32.1705 0.0886219 20.7246 0.0886219C9.27873 0.0886219 0 9.36735 0 20.8133C0 31.1575 7.5787 39.7314 17.4864 41.2861V26.804H12.2243V20.8133H17.4864V16.2474C17.4864 11.0533 20.5805 8.18418 25.3144 8.18418C27.5819 8.18418 29.9536 8.58896 29.9536 8.58896V13.6892H27.3402C24.7657 13.6892 23.9629 15.2867 23.9629 16.9257V20.8133H29.7107L28.7919 26.804H23.9629V41.2861C33.8706 39.7314 41.4493 31.1575 41.4493 20.8133Z" fill="#100F0D"/>
<path d="M28.7917 26.8042L29.7105 20.8134H23.9627V16.9258C23.9627 15.2869 24.7656 13.6894 27.3401 13.6894H29.9534V8.58915C29.9534 8.58915 27.5817 8.18437 25.3142 8.18437C20.5803 8.18437 17.4862 11.0534 17.4862 16.2476V20.8134H12.2241V26.8042H17.4862V41.2863C18.5414 41.4519 19.6228 41.5381 20.7245 41.5381C21.8261 41.5381 22.9076 41.4519 23.9627 41.2863V26.8042H28.7917Z" fill="white"/>
</g>
<defs>
<clipPath id="clip0_631_5617">
<rect width="41.4493" height="41.4493" fill="white" transform="translate(0 0.0888672)"/>
</clipPath>
</defs>
</svg>
