<svg width="42" height="32" viewBox="0 0 42 32" fill="none" xmlns="http://www.w3.org/2000/svg">
<g clip-path="url(#clip0_631_5622)">
<path d="M3.28288 31.3564H9.89477V15.3688L0.449219 8.26318V28.5252C0.449219 30.0796 1.72715 31.3564 3.28288 31.3564Z" fill="black"/>
<path d="M32.5088 31.3564H39.1207C40.6764 31.3564 41.9543 30.0796 41.9543 28.5252V8.26318L32.5088 15.3133" fill="black"/>
<path d="M32.5088 3.10079V15.369L41.9543 8.31896V4.48861C41.9543 0.991323 37.9539 -1.00712 35.1758 1.10235" fill="black"/>
<path d="M9.89453 15.3683V3.1001L21.2292 11.5935L32.5083 3.1001V15.3683L21.1736 23.8062" fill="black"/>
<path d="M0.449219 4.48822V8.26306L9.89477 15.3131V3.10041L7.22779 1.10196C4.44969 -0.951998 0.449219 1.04645 0.449219 4.48822Z" fill="black"/>
</g>
<defs>
<clipPath id="clip0_631_5622">
<rect width="41.4493" height="31.087" fill="white" transform="translate(0.449219 0.27002)"/>
</clipPath>
</defs>
</svg>
