<svg width="53" height="50" viewBox="0 0 53 50" fill="none" xmlns="http://www.w3.org/2000/svg">
<path d="M0.5 6.58478C0.5 4.86087 1.18482 3.20757 2.40381 1.98858C3.62279 0.769597 5.27609 0.0847778 7 0.0847778L46 0.0847778C47.7239 0.0847778 49.3772 0.769597 50.5962 1.98858C51.8152 3.20757 52.5 4.86087 52.5 6.58478V32.5848C52.5 34.3087 51.8152 35.962 50.5962 37.181C49.3772 38.4 47.7239 39.0848 46 39.0848H14.8455C13.9836 39.085 13.1571 39.4275 12.5478 40.037L3.2755 49.3093C3.04842 49.5369 2.75892 49.6921 2.44362 49.7551C2.12832 49.8182 1.8014 49.7863 1.50425 49.6635C1.20709 49.5406 0.953056 49.3324 0.774291 49.0651C0.595526 48.7979 0.500068 48.4836 0.5 48.162L0.5 6.58478ZM23.8805 15.5743C23.666 15.2547 23.4188 14.9584 23.1427 14.6903C22.7066 14.2451 22.1892 13.8876 21.6185 13.6373L21.5925 13.6243C20.8223 13.2684 19.9839 13.0843 19.1355 13.0848C16.022 13.0848 13.5 15.5093 13.5 18.5025C13.5 21.4925 16.022 23.917 19.1355 23.917C20.2502 23.917 21.287 23.6083 22.1612 23.072C21.716 24.3363 20.8937 25.685 19.5287 27.037C19.4002 27.1625 19.2987 27.313 19.2304 27.4792C19.1622 27.6454 19.1288 27.8239 19.1321 28.0035C19.1355 28.1831 19.1755 28.3602 19.2499 28.5238C19.3243 28.6873 19.4313 28.8339 19.5645 28.9545C20.1268 29.4745 21.0173 29.4583 21.56 28.922C25.8955 24.6028 26.0125 19.9585 24.6182 16.8775C24.4128 16.4224 24.1658 15.9873 23.8805 15.5775V15.5743ZM36.25 23.072C35.808 24.3363 34.9825 25.685 33.6175 27.037C33.4891 27.1627 33.3879 27.3134 33.3199 27.4797C33.252 27.6461 33.2188 27.8246 33.2225 28.0042C33.2261 28.1839 33.2665 28.3608 33.3412 28.5243C33.4158 28.6877 33.5231 28.8341 33.6565 28.9545C34.2155 29.4745 35.106 29.4583 35.6488 28.922C39.9842 24.6028 40.1012 19.9585 38.7103 16.8775C38.5038 16.4223 38.2557 15.9871 37.9692 15.5775C37.755 15.2568 37.5077 14.9595 37.2315 14.6903C36.7954 14.2451 36.278 13.8876 35.7073 13.6373L35.6812 13.6243C34.9121 13.2689 34.0748 13.0848 33.2275 13.0848C30.1173 13.0848 27.592 15.5093 27.592 18.5025C27.592 21.4925 30.1173 23.917 33.2275 23.917C34.3423 23.917 35.379 23.6083 36.2533 23.072H36.25Z" fill="black"/>
</svg>
