<svg width="25" height="18" viewBox="0 0 25 18" fill="none" xmlns="http://www.w3.org/2000/svg">
<path d="M0.575 2.3325C0.726227 1.66986 1.09798 1.07822 1.62938 0.654463C2.16078 0.230706 2.82033 -4.57416e-05 3.5 6.80121e-09H21.5C22.1797 -4.57416e-05 22.8392 0.230706 23.3706 0.654463C23.902 1.07822 24.2738 1.66986 24.425 2.3325L12.5 9.621L0.575 2.3325ZM0.5 4.0455V14.7015L9.2045 9.3645L0.5 4.0455ZM10.6415 10.245L0.7865 16.2855C1.02999 16.7989 1.41429 17.2326 1.89467 17.5362C2.37505 17.8397 2.93176 18.0005 3.5 18H21.5C22.0681 18.0001 22.6246 17.8389 23.1048 17.5351C23.5849 17.2313 23.9688 16.7975 24.212 16.284L14.357 10.2435L12.5 11.379L10.6415 10.245ZM15.7955 9.366L24.5 14.7015V4.0455L15.7955 9.366Z" fill="#FFEBC1"/>
</svg>
